# xmcd
#
# Track frame offsets:
#	150
#	16600
#	36390
#
# Disc length: 760 seconds
#
# Revision: 0
# Processed by: cddbd v1.5.1PL0 Copyright (c) Steve Scherf et al.
# Submitted via: dBpowerAMP V4.0
#
DISCID=1802f603
DTITLE=Carey Colvin - Trickle
DYEAR=1993
DGENRE=Country
TTITLE0=Inside the Blue
TTITLE1=Let It Flow
TTITLE2=Little Blind Fish
EXTD=
EXTT0=
EXTT1=
EXTT2=
PLAYORDER=
